<svg width="400" height="400" viewBox="0 0 400 400" fill="none" xmlns="http://www.w3.org/2000/svg">
<path fill-rule="evenodd" clip-rule="evenodd" d="M223.549 12.5C268.808 12.4893 312.343 29.9121 345.163 61.1695C377.984 92.4275 397.583 135.134 399.911 180.468C400.101 183.61 399.928 187.974 399.928 189.578V198.406L399.905 198.793C396.826 250.629 373.83 299.249 335.75 334.431C297.67 369.614 247.473 388.618 195.711 387.449C143.951 386.28 94.6575 365.029 58.195 328.164C21.7324 291.298 0.940885 241.689 0.191258 189.767L0 176.541H47.4338C50.2597 136.392 66.6733 98.2571 94.1677 68.5819C124.634 35.6988 166.426 15.6618 211.073 12.5314L211.526 12.5H223.549ZM311.22 93.4183C286.745 70.0975 254.036 57.4833 220.288 58.3506C186.541 59.218 154.518 73.4952 131.267 98.0425C119.754 110.197 110.74 124.508 104.741 140.156C98.742 155.804 95.8747 172.484 96.3028 189.244L96.307 189.411V225.648H54.0449C61.5256 255.722 78.083 282.896 101.631 303.345C129.014 327.123 164.019 340.217 200.239 340.23H211.474C248.156 337.509 282.578 321.399 308.221 294.937C327.013 275.545 340.128 251.584 346.453 225.661L287.641 191.721L217.774 232.041V121.585L287.641 161.908L339.017 132.255C332.335 117.807 322.956 104.601 311.22 93.4183Z" fill="#E70000"/>
</svg>
