<svg width="400" height="375" viewBox="0 0 400 375" fill="none" xmlns="http://www.w3.org/2000/svg">
<path fill-rule="evenodd" clip-rule="evenodd" d="M223.549 4.89379e-06C268.808 -0.0106605 312.343 17.4121 345.163 48.6695C377.984 79.9275 397.583 122.634 399.911 167.968C400.101 171.11 399.928 175.474 399.928 177.078V185.906L399.905 186.293C396.826 238.129 373.83 286.749 335.75 321.931C297.67 357.114 247.473 376.118 195.711 374.949C143.951 373.78 94.6575 352.529 58.195 315.664C21.7324 278.798 0.940885 229.189 0.191258 177.267L0 164.041H47.4338C50.2597 123.892 66.6733 85.7571 94.1677 56.0819C124.634 23.1988 166.426 3.16181 211.073 0.03141L211.526 4.89379e-06H223.549ZM311.22 80.9183C286.745 57.5975 254.036 44.9833 220.288 45.8506C186.541 46.718 154.518 60.9952 131.267 85.5425C119.754 97.6971 110.74 112.008 104.741 127.656C98.742 143.304 95.8747 159.984 96.3028 176.744L96.3071 176.911V213.148H54.0449C61.5256 243.222 78.083 270.396 101.631 290.845C129.014 314.623 164.019 327.717 200.239 327.73H211.474C248.156 325.009 282.578 308.899 308.221 282.437C327.013 263.045 340.128 239.084 346.453 213.161L287.641 179.221L217.774 219.541V109.085L287.641 149.408L339.017 119.755C332.335 105.307 322.956 92.1009 311.22 80.9183Z" fill="#E70000"/>
</svg>
