<svg width="1192" height="375" viewBox="0 0 1192 375" fill="none" xmlns="http://www.w3.org/2000/svg">
<path fill-rule="evenodd" clip-rule="evenodd" d="M223.549 4.89379e-06C268.808 -0.0106605 312.343 17.4121 345.163 48.6695C377.984 79.9275 397.583 122.634 399.911 167.968C400.101 171.11 399.928 175.474 399.928 177.078V185.906L399.905 186.293C396.826 238.129 373.83 286.749 335.75 321.931C297.67 357.114 247.473 376.118 195.711 374.949C143.951 373.78 94.6575 352.529 58.195 315.664C21.7324 278.798 0.940885 229.189 0.191258 177.267L0 164.041H47.4338C50.2597 123.892 66.6733 85.7571 94.1677 56.0819C124.634 23.1988 166.426 3.16181 211.073 0.03141L211.526 4.89379e-06H223.549ZM311.22 80.9183C286.745 57.5975 254.036 44.9833 220.288 45.8506C186.541 46.718 154.518 60.9952 131.267 85.5425C119.754 97.6971 110.74 112.008 104.741 127.656C98.742 143.304 95.8747 159.984 96.3028 176.744L96.3071 176.911V213.148H54.0449C61.5256 243.222 78.083 270.396 101.631 290.845C129.014 314.623 164.019 327.717 200.239 327.73H211.474C248.156 325.009 282.578 308.899 308.221 282.437C327.013 263.045 340.128 239.084 346.453 213.161L287.641 179.221L217.774 219.541V109.085L287.641 149.408L339.017 119.755C332.335 105.307 322.956 92.1009 311.22 80.9183Z" fill="#E70000"/>
<path d="M561.345 351.693L470.41 121.195H525.36L590.036 300.147L654.712 121.195H709.176L618.727 351.693H561.345Z" fill="white"/>
<path d="M851.384 356.556C811.184 356.556 780.062 346.668 758.017 326.893C735.972 307.117 724.95 276.806 724.95 235.958C724.95 199 734.351 169.823 753.154 148.427C771.957 127.03 800.486 116.332 838.74 116.332C873.753 116.332 900.012 125.571 917.518 144.05C935.349 162.205 944.264 185.708 944.264 214.561V257.354H775.523C778.117 279.723 786.221 295.122 799.837 303.551C813.453 311.98 834.201 316.195 862.082 316.195C873.753 316.195 885.748 315.06 898.067 312.791C910.386 310.521 921.084 307.604 930.162 304.038V342.94C919.787 347.479 907.792 350.883 894.177 353.152C880.885 355.422 866.62 356.556 851.384 356.556ZM775.523 222.828H897.581V206.781C897.581 190.895 893.204 178.576 884.451 169.823C875.698 160.746 860.947 156.207 840.199 156.207C815.561 156.207 798.541 161.556 789.139 172.254C780.062 182.953 775.523 199.811 775.523 222.828Z" fill="white"/>
<path d="M957.971 351.693L1045.99 234.499L961.375 121.195H1018.27L1074.68 198.028L1131.09 121.195H1187.98L1103.86 234.499L1191.39 351.693H1134.01L1074.68 271.456L1015.35 351.693H957.971Z" fill="white"/>
</svg>
